# xmcd
#
# Track frame offsets: 
#        182
#        8445
#        16307
#        30017
#        38445
#        44922
#        52935
#        59575
#        65810
#        72887
#        77622
#        89697
#        98790
#        104992
#        111762
#        118620
#        130657
#        136162
#        141495
#        155042
#        160080
#        170340
#        180377
#        191785
#        205105
#        219062
#        231315
#        246210
#        262472
#        273687
#
# Disc length: 3753 seconds
#
# Revision: 4
# Processed by: cddbd v1.5.2PL0 Copyright (c) Steve Scherf et al.
# Submitted via: ExactAudioCopy v1.3
#
DISCID=b20ea71e
DTITLE=Eric Darling, featuring - BlueGrass Music from the Appalachian 
DTITLE=Mountains
DYEAR=1993
DGENRE=Bluegrass
TTITLE0=Cripple Creek
TTITLE1=Pateroller Song
TTITLE2=One Dime Blues
TTITLE3=Sourwood Mountain
TTITLE4=Goin Down Road Feelin' Bad
TTITLE5=Amazing Grace
TTITLE6=Girl I Left Behind Me
TTITLE7=Marching Jaybird
TTITLE8=John Brown's Dream
TTITLE9=Sally Goodin
TTITLE10=Railroad Bill
TTITLE11=Soldier's Joy
TTITLE12=Molly Brooks
TTITLE13=Pretty Polly
TTITLE14=Johnson Boys
TTITLE15=John Henry
TTITLE16=Drunken Hiccups
TTITLE17=Shady Grove
TTITLE18=Bully of the Town
TTITLE19=Skip to My Lou
TTITLE20=Hard and It's Hard
TTITLE21=Bowling Green
TTITLE22=I'll Fly Away
TTITLE23=The Darby Run
TTITLE24=Willie Moore
TTITLE25=Little Birdie
TTITLE26=The Banks of the Ohio
TTITLE27=The Wagoner's Lad
TTITLE28=Poor Ellen Smith
TTITLE29=What Will We Do With the Baby-O
EXTD=
EXTT0=
EXTT1=
EXTT2=
EXTT3=
EXTT4=
EXTT5=
EXTT6=
EXTT7=
EXTT8=
EXTT9=
EXTT10=
EXTT11=
EXTT12=
EXTT13=
EXTT14=
EXTT15=
EXTT16=
EXTT17=
EXTT18=
EXTT19=
EXTT20=
EXTT21=
EXTT22=
EXTT23=
EXTT24=
EXTT25=
EXTT26=
EXTT27=
EXTT28=
EXTT29=
PLAYORDER=
